<svg width="150" height="150" viewBox="0 0 150 150" fill="none" xmlns="http://www.w3.org/2000/svg">
<g clip-path="url(#clip0_26_5)">
<rect width="150" height="150" rx="25" fill="#2F2E41"/>
<g filter="url(#filter0_d_26_5)">
<path d="M37.294 95.5775H24.4474L41.1335 46.1229H57.0468L73.7329 95.5775H60.8863L49.2713 58.5831H48.8849L37.294 95.5775ZM35.5795 76.1144H62.4318V85.1939H35.5795V76.1144ZM109.188 62.2777C108.914 61.2635 108.512 60.3701 107.98 59.5973C107.449 58.8085 106.797 58.1404 106.024 57.5931C105.252 57.0457 104.366 56.6352 103.368 56.3615C102.37 56.0718 101.275 55.9269 100.084 55.9269C97.6855 55.9269 95.6087 56.5064 93.854 57.6655C92.1154 58.8246 90.7712 60.515 89.8213 62.7365C88.8715 64.942 88.3966 67.6224 88.3966 70.7777C88.3966 73.9491 88.8554 76.6537 89.773 78.8914C90.6907 81.1291 92.0188 82.8355 93.7574 84.0107C95.4961 85.1859 97.605 85.7735 100.084 85.7735C102.274 85.7735 104.125 85.4193 105.638 84.711C107.167 83.9865 108.327 82.9643 109.115 81.6442C109.904 80.3241 110.299 78.7706 110.299 76.9837L112.52 77.2493H100.495V68.532H121.817V75.076C121.817 79.5031 120.875 83.2943 118.992 86.4496C117.124 89.6049 114.549 92.0277 111.265 93.7181C107.997 95.4084 104.238 96.2536 99.9875 96.2536C95.2707 96.2536 91.1253 95.2313 87.5515 93.1868C83.9776 91.1423 81.1926 88.2285 79.1963 84.4454C77.2001 80.6461 76.202 76.1385 76.202 70.9226C76.202 66.8658 76.8057 63.2678 78.0131 60.1286C79.2205 56.9733 80.9028 54.3009 83.06 52.1115C85.2333 49.9222 87.7446 48.264 90.5941 47.1371C93.4596 46.0102 96.5425 45.4468 99.8426 45.4468C102.708 45.4468 105.372 45.8573 107.836 46.6783C110.315 47.4993 112.504 48.6584 114.404 50.1556C116.319 51.6527 117.873 53.4316 119.064 55.4922C120.256 57.5528 120.996 59.8147 121.286 62.2777H109.188Z" fill="#F8F8F8"/>
</g>
</g>
<defs>
<filter id="filter0_d_26_5" x="24.4474" y="45.4468" width="107.37" height="60.8068" filterUnits="userSpaceOnUse" color-interpolation-filters="sRGB">
<feFlood flood-opacity="0" result="BackgroundImageFix"/>
<feColorMatrix in="SourceAlpha" type="matrix" values="0 0 0 0 0 0 0 0 0 0 0 0 0 0 0 0 0 0 127 0" result="hardAlpha"/>
<feOffset dx="5" dy="5"/>
<feGaussianBlur stdDeviation="2.5"/>
<feComposite in2="hardAlpha" operator="out"/>
<feColorMatrix type="matrix" values="0 0 0 0 0 0 0 0 0 0 0 0 0 0 0 0 0 0 0.25 0"/>
<feBlend mode="normal" in2="BackgroundImageFix" result="effect1_dropShadow_26_5"/>
<feBlend mode="normal" in="SourceGraphic" in2="effect1_dropShadow_26_5" result="shape"/>
</filter>
<clipPath id="clip0_26_5">
<rect width="150" height="150" fill="white"/>
</clipPath>
</defs>
</svg>
