<svg width="512" height="239" viewBox="0 0 512 239" fill="none" xmlns="http://www.w3.org/2000/svg">
<path d="M0 190.577C5.49335 198.055 11.4879 205.136 17.9409 211.771L484.06 212.503C490.513 205.868 496.507 198.787 502.001 191.309L0 190.577Z" fill="#F2F2F2"/>
<path d="M317.564 122.714V185.457C317.564 186.257 317.877 187.023 318.432 187.589C318.987 188.154 319.739 188.472 320.524 188.473H411.802C412.587 188.472 413.34 188.154 413.895 187.589C414.45 187.023 414.762 186.257 414.762 185.457V122.714C414.761 121.915 414.448 121.15 413.893 120.585C413.338 120.021 412.586 119.703 411.802 119.702H320.524C319.74 119.703 318.988 120.021 318.433 120.585C317.878 121.15 317.566 121.915 317.564 122.714Z" fill="#3F3D56"/>
<path d="M319.706 123.494V184.682C319.706 185.109 319.873 185.518 320.17 185.82C320.466 186.122 320.868 186.292 321.288 186.293H411.045C411.464 186.292 411.866 186.122 412.163 185.82C412.459 185.518 412.626 185.109 412.627 184.682V123.494C412.627 123.066 412.461 122.656 412.164 122.353C411.867 122.051 411.465 121.88 411.045 121.879H321.288C320.868 121.88 320.465 122.051 320.169 122.353C319.872 122.656 319.706 123.066 319.706 123.494Z" fill="#6C63FF"/>
<path d="M315.655 197.693C315.822 197.907 316.034 198.08 316.276 198.198C316.518 198.316 316.783 198.377 317.052 198.376H414.792C415.059 198.376 415.323 198.315 415.564 198.198C415.805 198.08 416.017 197.91 416.186 197.698C416.354 197.487 416.474 197.24 416.537 196.975C416.6 196.711 416.604 196.435 416.549 196.169L415.032 188.828C414.969 188.529 414.833 188.25 414.638 188.018C414.442 187.785 414.192 187.606 413.912 187.497C413.708 187.416 413.492 187.374 413.273 187.374H318.563C318.345 187.374 318.128 187.416 317.925 187.497C317.644 187.606 317.394 187.785 317.199 188.018C317.003 188.25 316.868 188.529 316.805 188.828L315.287 196.169C315.233 196.435 315.238 196.71 315.302 196.974C315.365 197.239 315.486 197.485 315.654 197.696L315.655 197.693Z" fill="#2F2E41"/>
<path d="M319.566 190.533H321.963C322.132 190.533 322.27 190.394 322.27 190.221V189.006C322.27 188.833 322.132 188.694 321.963 188.694H319.566C319.397 188.694 319.259 188.833 319.259 189.006V190.221C319.259 190.394 319.397 190.533 319.566 190.533Z" fill="#3F3D56"/>
<path d="M319.637 193.599H322.035C322.204 193.599 322.341 193.46 322.341 193.287V192.072C322.341 191.899 322.204 191.76 322.035 191.76H319.637C319.468 191.76 319.331 191.899 319.331 192.072V193.287C319.331 193.46 319.468 193.599 319.637 193.599Z" fill="#3F3D56"/>
<path d="M383.401 197.28H360.02C359.927 197.28 359.838 197.242 359.772 197.175C359.706 197.108 359.669 197.017 359.669 196.922V195.797C359.669 195.703 359.706 195.612 359.772 195.545C359.838 195.478 359.927 195.44 360.02 195.44H383.401C383.494 195.44 383.583 195.478 383.649 195.545C383.715 195.612 383.752 195.703 383.752 195.797V196.922C383.752 197.017 383.715 197.108 383.649 197.175C383.583 197.242 383.494 197.28 383.401 197.28Z" fill="#3F3D56"/>
<path d="M335.391 135.266H333.062C332.521 135.266 332.082 135.713 332.082 136.264V136.554C332.082 137.105 332.521 137.552 333.062 137.552H335.391C335.932 137.552 336.37 137.105 336.37 136.554V136.264C336.37 135.713 335.932 135.266 335.391 135.266Z" fill="white"/>
<path d="M358.766 135.266H356.438C355.897 135.266 355.458 135.713 355.458 136.264V136.554C355.458 137.105 355.897 137.552 356.438 137.552H358.766C359.307 137.552 359.746 137.105 359.746 136.554V136.264C359.746 135.713 359.307 135.266 358.766 135.266Z" fill="white"/>
<path d="M365.389 135.266H363.06C362.519 135.266 362.081 135.713 362.081 136.264V136.554C362.081 137.105 362.519 137.552 363.06 137.552H365.389C365.93 137.552 366.368 137.105 366.368 136.554V136.264C366.368 135.713 365.93 135.266 365.389 135.266Z" fill="white"/>
<path d="M352.408 135.075H339.42C338.879 135.075 338.441 135.522 338.441 136.073V136.363C338.441 136.914 338.879 137.361 339.42 137.361H352.408C352.949 137.361 353.387 136.914 353.387 136.363V136.073C353.387 135.522 352.949 135.075 352.408 135.075Z" fill="white"/>
<path d="M383.574 135.075H370.587C370.046 135.075 369.608 135.522 369.608 136.073V136.363C369.608 136.914 370.046 137.361 370.587 137.361H383.574C384.115 137.361 384.554 136.914 384.554 136.363V136.073C384.554 135.522 384.115 135.075 383.574 135.075Z" fill="white"/>
<path d="M341.624 140.424H339.296C338.755 140.424 338.316 140.871 338.316 141.422V141.712C338.316 142.263 338.755 142.71 339.296 142.71H341.624C342.165 142.71 342.604 142.263 342.604 141.712V141.422C342.604 140.871 342.165 140.424 341.624 140.424Z" fill="white"/>
<path d="M364.999 140.424H362.671C362.13 140.424 361.691 140.871 361.691 141.422V141.712C361.691 142.263 362.13 142.71 362.671 142.71H364.999C365.54 142.71 365.979 142.263 365.979 141.712V141.422C365.979 140.871 365.54 140.424 364.999 140.424Z" fill="white"/>
<path d="M371.622 140.424H369.294C368.753 140.424 368.314 140.871 368.314 141.422V141.712C368.314 142.263 368.753 142.71 369.294 142.71H371.622C372.163 142.71 372.602 142.263 372.602 141.712V141.422C372.602 140.871 372.163 140.424 371.622 140.424Z" fill="white"/>
<path d="M358.641 140.234H345.654C345.113 140.234 344.674 140.681 344.674 141.232V141.522C344.674 142.073 345.113 142.52 345.654 142.52H358.641C359.182 142.52 359.621 142.073 359.621 141.522V141.232C359.621 140.681 359.182 140.234 358.641 140.234Z" fill="white"/>
<path d="M389.807 140.234H376.82C376.279 140.234 375.84 140.681 375.84 141.232V141.522C375.84 142.073 376.279 142.52 376.82 142.52H389.807C390.348 142.52 390.787 142.073 390.787 141.522V141.232C390.787 140.681 390.348 140.234 389.807 140.234Z" fill="white"/>
<path d="M347.858 145.584H345.529C344.988 145.584 344.55 146.03 344.55 146.582V146.872C344.55 147.423 344.988 147.869 345.529 147.869H347.858C348.399 147.869 348.837 147.423 348.837 146.872V146.582C348.837 146.03 348.399 145.584 347.858 145.584Z" fill="white"/>
<path d="M371.232 145.584H368.903C368.362 145.584 367.924 146.03 367.924 146.582V146.872C367.924 147.423 368.362 147.869 368.903 147.869H371.232C371.773 147.869 372.212 147.423 372.212 146.872V146.582C372.212 146.03 371.773 145.584 371.232 145.584Z" fill="white"/>
<path d="M377.855 145.584H375.527C374.986 145.584 374.547 146.03 374.547 146.582V146.872C374.547 147.423 374.986 147.869 375.527 147.869H377.855C378.396 147.869 378.835 147.423 378.835 146.872V146.582C378.835 146.03 378.396 145.584 377.855 145.584Z" fill="white"/>
<path d="M364.874 145.393H351.887C351.346 145.393 350.907 145.839 350.907 146.39V146.681C350.907 147.232 351.346 147.678 351.887 147.678H364.874C365.415 147.678 365.854 147.232 365.854 146.681V146.39C365.854 145.839 365.415 145.393 364.874 145.393Z" fill="white"/>
<path d="M396.041 145.393H383.054C382.513 145.393 382.074 145.839 382.074 146.39V146.681C382.074 147.232 382.513 147.678 383.054 147.678H396.041C396.582 147.678 397.021 147.232 397.021 146.681V146.39C397.021 145.839 396.582 145.393 396.041 145.393Z" fill="white"/>
<path d="M354.091 150.742H351.762C351.221 150.742 350.783 151.189 350.783 151.74V152.03C350.783 152.581 351.221 153.028 351.762 153.028H354.091C354.632 153.028 355.07 152.581 355.07 152.03V151.74C355.07 151.189 354.632 150.742 354.091 150.742Z" fill="white"/>
<path d="M377.466 150.742H375.137C374.596 150.742 374.158 151.189 374.158 151.74V152.03C374.158 152.581 374.596 153.028 375.137 153.028H377.466C378.007 153.028 378.445 152.581 378.445 152.03V151.74C378.445 151.189 378.007 150.742 377.466 150.742Z" fill="white"/>
<path d="M384.088 150.742H381.76C381.219 150.742 380.78 151.189 380.78 151.74V152.03C380.78 152.581 381.219 153.028 381.76 153.028H384.088C384.629 153.028 385.068 152.581 385.068 152.03V151.74C385.068 151.189 384.629 150.742 384.088 150.742Z" fill="white"/>
<path d="M371.108 150.551H358.121C357.58 150.551 357.141 150.998 357.141 151.549V151.839C357.141 152.39 357.58 152.837 358.121 152.837H371.108C371.649 152.837 372.087 152.39 372.087 151.839V151.549C372.087 150.998 371.649 150.551 371.108 150.551Z" fill="white"/>
<path d="M358.766 171.255H356.438C355.897 171.255 355.458 171.702 355.458 172.253V172.543C355.458 173.094 355.897 173.541 356.438 173.541H358.766C359.307 173.541 359.746 173.094 359.746 172.543V172.253C359.746 171.702 359.307 171.255 358.766 171.255Z" fill="white"/>
<path d="M365.389 171.255H363.06C362.519 171.255 362.081 171.702 362.081 172.253V172.543C362.081 173.094 362.519 173.541 363.06 173.541H365.389C365.93 173.541 366.368 173.094 366.368 172.543V172.253C366.368 171.702 365.93 171.255 365.389 171.255Z" fill="white"/>
<path d="M383.574 171.446H370.587C370.046 171.446 369.608 171.893 369.608 172.444V172.734C369.608 173.285 370.046 173.731 370.587 173.731H383.574C384.115 173.731 384.554 173.285 384.554 172.734V172.444C384.554 171.893 384.115 171.446 383.574 171.446Z" fill="white"/>
<path d="M335.391 171.255H333.062C332.521 171.255 332.082 171.702 332.082 172.253V172.543C332.082 173.094 332.521 173.541 333.062 173.541H335.391C335.932 173.541 336.37 173.094 336.37 172.543V172.253C336.37 171.702 335.932 171.255 335.391 171.255Z" fill="white"/>
<path d="M352.408 171.446H339.42C338.879 171.446 338.441 171.893 338.441 172.444V172.734C338.441 173.285 338.879 173.731 339.42 173.731H352.408C352.949 173.731 353.387 173.285 353.387 172.734V172.444C353.387 171.893 352.949 171.446 352.408 171.446Z" fill="white"/>
<path d="M341.624 166.097H339.296C338.755 166.097 338.316 166.543 338.316 167.094V167.385C338.316 167.936 338.755 168.382 339.296 168.382H341.624C342.165 168.382 342.604 167.936 342.604 167.385V167.094C342.604 166.543 342.165 166.097 341.624 166.097Z" fill="white"/>
<path d="M364.999 166.097H362.671C362.13 166.097 361.691 166.543 361.691 167.094V167.385C361.691 167.936 362.13 168.382 362.671 168.382H364.999C365.54 168.382 365.979 167.936 365.979 167.385V167.094C365.979 166.543 365.54 166.097 364.999 166.097Z" fill="white"/>
<path d="M371.622 166.097H369.294C368.753 166.097 368.314 166.543 368.314 167.094V167.385C368.314 167.936 368.753 168.382 369.294 168.382H371.622C372.163 168.382 372.602 167.936 372.602 167.385V167.094C372.602 166.543 372.163 166.097 371.622 166.097Z" fill="white"/>
<path d="M358.641 166.287H345.654C345.113 166.287 344.674 166.734 344.674 167.285V167.575C344.674 168.126 345.113 168.573 345.654 168.573H358.641C359.182 168.573 359.621 168.126 359.621 167.575V167.285C359.621 166.734 359.182 166.287 358.641 166.287Z" fill="white"/>
<path d="M347.858 160.938H345.529C344.988 160.938 344.55 161.385 344.55 161.936V162.226C344.55 162.777 344.988 163.224 345.529 163.224H347.858C348.399 163.224 348.837 162.777 348.837 162.226V161.936C348.837 161.385 348.399 160.938 347.858 160.938Z" fill="white"/>
<path d="M371.232 160.938H368.903C368.362 160.938 367.924 161.385 367.924 161.936V162.226C367.924 162.777 368.362 163.224 368.903 163.224H371.232C371.773 163.224 372.212 162.777 372.212 162.226V161.936C372.212 161.385 371.773 160.938 371.232 160.938Z" fill="white"/>
<path d="M377.855 160.938H375.527C374.986 160.938 374.547 161.385 374.547 161.936V162.226C374.547 162.777 374.986 163.224 375.527 163.224H377.855C378.396 163.224 378.835 162.777 378.835 162.226V161.936C378.835 161.385 378.396 160.938 377.855 160.938Z" fill="white"/>
<path d="M364.874 161.128H351.887C351.346 161.128 350.907 161.575 350.907 162.126V162.416C350.907 162.967 351.346 163.414 351.887 163.414H364.874C365.415 163.414 365.854 162.967 365.854 162.416V162.126C365.854 161.575 365.415 161.128 364.874 161.128Z" fill="white"/>
<path d="M354.091 155.779H351.762C351.221 155.779 350.783 156.226 350.783 156.777V157.067C350.783 157.618 351.221 158.065 351.762 158.065H354.091C354.632 158.065 355.07 157.618 355.07 157.067V156.777C355.07 156.226 354.632 155.779 354.091 155.779Z" fill="white"/>
<path d="M377.466 155.779H375.137C374.596 155.779 374.158 156.226 374.158 156.777V157.067C374.158 157.618 374.596 158.065 375.137 158.065H377.466C378.007 158.065 378.445 157.618 378.445 157.067V156.777C378.445 156.226 378.007 155.779 377.466 155.779Z" fill="white"/>
<path d="M384.088 155.779H381.76C381.219 155.779 380.78 156.226 380.78 156.777V157.067C380.78 157.618 381.219 158.065 381.76 158.065H384.088C384.629 158.065 385.068 157.618 385.068 157.067V156.777C385.068 156.226 384.629 155.779 384.088 155.779Z" fill="white"/>
<path d="M371.108 155.97H358.121C357.58 155.97 357.141 156.416 357.141 156.967V157.258C357.141 157.809 357.58 158.255 358.121 158.255H371.108C371.649 158.255 372.087 157.809 372.087 157.258V156.967C372.087 156.416 371.649 155.97 371.108 155.97Z" fill="white"/>
<path d="M99.2605 119.705V194.787H150.901V119.705C150.902 119.165 150.732 118.638 150.418 118.204C150.104 117.769 149.661 117.448 149.154 117.289C148.915 117.208 148.665 117.169 148.414 117.172H101.754C101.427 117.171 101.103 117.236 100.801 117.363C100.498 117.49 100.224 117.676 99.992 117.912C99.7604 118.147 99.5766 118.426 99.4511 118.734C99.3256 119.042 99.2608 119.371 99.2605 119.705ZM119.416 145.503C119.416 144.014 119.997 142.586 121.03 141.533C122.064 140.48 123.466 139.888 124.928 139.888C126.39 139.888 127.793 140.48 128.826 141.533C129.86 142.586 130.441 144.014 130.441 145.503V154.215C130.441 155.704 129.86 157.133 128.826 158.186C127.793 159.239 126.39 159.83 124.928 159.83C123.466 159.83 122.064 159.239 121.03 158.186C119.997 157.133 119.416 155.704 119.416 154.215V145.503Z" fill="#2F2E41"/>
<path d="M99.1023 192.386V199.626C99.1035 200.001 99.2498 200.361 99.5095 200.627C99.7693 200.892 100.121 201.043 100.49 201.046H149.672C150.041 201.044 150.393 200.894 150.653 200.628C150.913 200.362 151.059 200.002 151.059 199.626V192.386H99.1023Z" fill="#3F3D56"/>
<path d="M18.0237 6.58344V143.673C18.025 145.42 18.7069 147.095 19.9197 148.331C21.1324 149.566 22.7769 150.261 24.492 150.262H223.938C225.653 150.261 227.297 149.566 228.51 148.331C229.723 147.095 230.405 145.42 230.406 143.673V6.58344C230.402 4.83766 229.72 3.16452 228.507 1.93055C227.295 0.696578 225.652 0.00236388 223.938 0H24.492C22.778 0.00219538 21.1348 0.696347 19.9223 1.93036C18.7099 3.16437 18.0272 4.83761 18.0237 6.58344Z" fill="#3F3D56"/>
<path d="M22.7023 8.28935V141.982C22.704 142.915 23.0687 143.81 23.7167 144.47C24.3646 145.13 25.2429 145.502 26.1592 145.503H222.276C223.193 145.502 224.071 145.13 224.719 144.47C225.367 143.81 225.731 142.915 225.733 141.982V8.28935C225.733 7.35477 225.369 6.45835 224.721 5.79678C224.073 5.13521 223.194 4.76254 222.276 4.76051H26.1592C25.2417 4.76254 24.3625 5.13521 23.7144 5.79678C23.0663 6.45835 22.7023 7.35477 22.7023 8.28935Z" fill="white"/>
<path d="M59.0998 200.556C59.2995 200.811 59.5532 201.016 59.8419 201.157C60.1307 201.298 60.447 201.37 60.7671 201.368H177.443C177.762 201.368 178.077 201.295 178.364 201.155C178.652 201.015 178.906 200.811 179.107 200.559C179.308 200.307 179.451 200.012 179.526 199.696C179.601 199.38 179.606 199.051 179.541 198.733L177.73 189.97C177.655 189.613 177.493 189.28 177.26 189.003C177.026 188.726 176.729 188.512 176.393 188.382C176.151 188.285 175.892 188.235 175.632 188.235H62.5699C62.3092 188.235 62.0508 188.285 61.8081 188.382C61.473 188.512 61.1751 188.726 60.9417 189.003C60.7082 189.28 60.5466 189.613 60.4716 189.97L58.6606 198.733C58.5962 199.051 58.6023 199.38 58.6783 199.695C58.7543 200.01 58.8983 200.305 59.0998 200.556Z" fill="#2F2E41"/>
<path d="M215.911 23.1775H32.406C32.2124 23.1775 32.0268 23.0992 31.89 22.9598C31.7531 22.8204 31.6762 22.6313 31.6762 22.4341C31.6762 22.237 31.7531 22.0479 31.89 21.9085C32.0268 21.7691 32.2124 21.6908 32.406 21.6908H215.912C216.106 21.6908 216.291 21.7691 216.428 21.9085C216.565 22.0479 216.642 22.237 216.642 22.4341C216.642 22.6313 216.565 22.8204 216.428 22.9598C216.291 23.0992 216.105 23.1775 215.911 23.1775Z" fill="#3F3D56"/>
<path d="M44.897 17.8948C47.2588 17.8948 49.1734 15.901 49.1734 13.4417C49.1734 10.9823 47.2588 8.9886 44.897 8.9886C42.5352 8.9886 40.6206 10.9823 40.6206 13.4417C40.6206 15.901 42.5352 17.8948 44.897 17.8948Z" fill="#3F3D56"/>
<path d="M59.6709 17.8948C62.0326 17.8948 63.9473 15.901 63.9473 13.4417C63.9473 10.9823 62.0326 8.9886 59.6709 8.9886C57.3091 8.9886 55.3944 10.9823 55.3944 13.4417C55.3944 15.901 57.3091 17.8948 59.6709 17.8948Z" fill="#3F3D56"/>
<path d="M74.4447 17.8948C76.8065 17.8948 78.7211 15.901 78.7211 13.4417C78.7211 10.9823 76.8065 8.9886 74.4447 8.9886C72.0829 8.9886 70.1683 10.9823 70.1683 13.4417C70.1683 15.901 72.0829 17.8948 74.4447 17.8948Z" fill="#3F3D56"/>
<path d="M323.723 188.168H410.684L412.396 194.025H323.723V188.168Z" fill="#3F3D56"/>
<path d="M207.015 10.0899H196.522C196.315 10.0958 196.119 10.1837 195.974 10.3347C195.83 10.4857 195.75 10.6881 195.75 10.8988C195.75 11.1095 195.83 11.3118 195.974 11.4629C196.119 11.6139 196.315 11.7017 196.522 11.7077H207.015C207.121 11.7107 207.227 11.692 207.326 11.6527C207.425 11.6134 207.515 11.5544 207.591 11.4789C207.667 11.4035 207.728 11.3133 207.769 11.2137C207.81 11.114 207.831 11.007 207.831 10.8988C207.831 10.7906 207.81 10.6835 207.769 10.5839C207.728 10.4842 207.667 10.394 207.591 10.3186C207.515 10.2432 207.425 10.1841 207.326 10.1448C207.227 10.1055 207.121 10.0869 207.015 10.0899H207.015Z" fill="#3F3D56"/>
<path d="M207.015 13.1279H196.522C196.311 13.1279 196.109 13.2131 195.96 13.3649C195.811 13.5166 195.727 13.7224 195.727 13.937C195.727 14.1517 195.811 14.3575 195.96 14.5092C196.109 14.661 196.311 14.7462 196.522 14.7462H207.015C207.121 14.7493 207.227 14.7306 207.326 14.6913C207.425 14.652 207.515 14.593 207.591 14.5175C207.667 14.4421 207.728 14.3519 207.769 14.2523C207.81 14.1526 207.831 14.0456 207.831 13.9374C207.831 13.8292 207.81 13.7221 207.769 13.6225C207.728 13.5228 207.667 13.4326 207.591 13.3572C207.515 13.2818 207.425 13.2227 207.326 13.1834C207.227 13.1441 207.121 13.1255 207.015 13.1285V13.1279Z" fill="#3F3D56"/>
<path d="M207.015 16.1665H196.522C196.315 16.1724 196.119 16.2602 195.974 16.4113C195.83 16.5623 195.75 16.7647 195.75 16.9754C195.75 17.186 195.83 17.3884 195.974 17.5394C196.119 17.6905 196.315 17.7783 196.522 17.7842H207.015C207.121 17.7873 207.227 17.7686 207.326 17.7293C207.425 17.69 207.515 17.6309 207.591 17.5555C207.667 17.4801 207.728 17.3899 207.769 17.2903C207.81 17.1906 207.831 17.0835 207.831 16.9754C207.831 16.8672 207.81 16.7601 207.769 16.6605C207.728 16.5608 207.667 16.4706 207.591 16.3952C207.515 16.3198 207.425 16.2607 207.326 16.2214C207.227 16.1821 207.121 16.1634 207.015 16.1665H207.015Z" fill="#3F3D56"/>
<path d="M447.133 195.582C447.412 196.409 447.941 197.124 448.643 197.625C449.346 198.127 450.187 198.388 451.045 198.373L467.803 197.934C468.667 197.916 469.502 197.615 470.184 197.074C470.866 196.533 471.358 195.782 471.586 194.933L473.957 169.103C474.798 169.492 475.714 169.683 476.638 169.664C478.258 169.623 479.796 168.928 480.913 167.731C482.03 166.535 482.634 164.936 482.594 163.285C482.553 161.635 481.87 160.068 480.696 158.931C479.521 157.793 477.951 157.177 476.331 157.219C475.962 157.217 475.594 157.256 475.233 157.335C474.84 156.902 474.363 156.558 473.832 156.325C473.301 156.091 472.728 155.974 472.15 155.98L446.373 156.658C446.159 156.666 445.946 156.693 445.737 156.739C445.172 156.846 444.636 157.075 444.165 157.412C443.694 157.748 443.299 158.183 443.007 158.687C442.715 159.192 442.533 159.754 442.472 160.336C442.411 160.919 442.473 161.508 442.655 162.063L447.133 195.582ZM474.443 167.35L476.131 161.195C476.323 160.484 476.327 159.735 476.144 159.022C476.225 159.022 476.298 158.982 476.38 158.982C477.539 158.954 478.661 159.397 479.5 160.212C480.339 161.027 480.825 162.149 480.852 163.329C480.879 164.51 480.445 165.653 479.645 166.508C478.844 167.362 477.743 167.857 476.584 167.885C475.836 167.909 475.096 167.724 474.443 167.351V167.35Z" fill="#E6E6E6"/>
<path d="M445.737 156.741C446.286 159.937 452.461 162.188 459.885 161.798C466.712 161.478 472.294 159.035 473.317 156.142C472.939 156.027 472.545 155.974 472.15 155.983L446.373 156.661C446.16 156.669 445.947 156.696 445.738 156.742L445.737 156.741Z" fill="#D6D6E3"/>
<path d="M270.487 138.499C270.487 138.499 214.719 145.35 220.044 138.499C221.973 136.021 222.505 128.68 222.398 120.316C222.364 117.776 222.272 115.144 222.147 112.523C221.53 99.9638 220.045 87.6893 220.045 87.6893C220.045 87.6893 268.807 64.2823 263.202 82.8367C260.96 90.3329 261.696 100.861 263.399 110.742C263.898 113.625 264.475 116.451 265.08 119.134C266.557 125.679 268.362 132.142 270.487 138.499Z" fill="#ED9DA0"/>
<path d="M164.635 238.618V238.138L263.066 237.048L323.038 236.477H323.206L323.143 237.322L323.227 236.477H323.334V236.38L324.102 228.702L324.393 225.796L324.483 224.888L324.561 224.129L328.025 212.363L331.489 200.614L334.404 190.72L338.854 175.602C338.854 175.602 336.332 169.608 334.931 167.895C333.529 166.183 328.028 153.926 328.028 153.926C328.028 153.926 320.17 142.873 314.941 141.537C312.75 140.966 308.423 140.207 303.827 139.253C302.106 138.899 288.919 135.02 288.134 134.481C284.014 131.404 273.69 131.056 273.292 131.056C273.291 131.042 273.291 131.029 273.292 131.015V130.964C273.306 130.725 273.306 130.485 273.292 130.245C273.298 129.978 273.281 129.71 273.242 129.446C273.248 129.349 273.234 129.252 273.202 129.16C273.174 128.955 273.139 128.738 273.09 128.51C273.073 128.408 273.051 128.307 273.023 128.207C272.86 127.52 272.625 126.852 272.322 126.215C272.282 126.124 272.232 126.027 272.188 125.935C271.913 125.408 271.594 124.905 271.235 124.434C271.162 124.337 271.084 124.234 271 124.137C270.54 123.586 270.03 123.081 269.475 122.63C269.324 122.51 269.167 122.385 269.004 122.27C268.913 122.195 268.818 122.126 268.718 122.064L268.219 121.733L267.754 121.459C267.345 121.231 266.913 121.008 266.443 120.797C266.297 120.728 266.14 120.666 265.983 120.605C265.827 120.544 265.58 120.445 265.372 120.365H265.338L264.918 120.194C264.599 120.085 264.274 119.988 263.932 119.892L263.41 119.755L262.85 119.624L262.289 119.504C261.729 119.389 261.129 119.287 260.502 119.207L259.863 119.127L259.207 119.059L258.529 119.002L257.565 118.945L256.444 118.905C251.498 118.905 246.566 119.439 241.731 120.499C238.375 119.739 234.938 119.416 231.502 119.54H231.015L230.454 119.575H230.094L229.371 119.643C229.127 119.655 228.883 119.683 228.643 119.729C228.402 119.763 228.15 119.793 227.909 119.832L227.539 119.896C227.174 119.96 226.805 120.027 226.418 120.107C226.295 120.13 226.172 120.158 226.049 120.192C225.561 120.301 225.074 120.432 224.592 120.58C224.351 120.649 224.11 120.728 223.869 120.814C223.743 120.849 223.628 120.894 223.51 120.942L223.151 121.073L222.798 121.216L222.377 121.387C222.165 121.478 221.957 121.575 221.75 121.678C221.632 121.729 221.514 121.787 221.402 121.85C221.29 121.912 221.172 121.964 221.066 122.027C219.798 122.694 218.627 123.535 217.585 124.527L217.299 124.807L217.018 125.098C216.923 125.196 216.833 125.299 216.744 125.401C216.378 125.808 216.037 126.237 215.723 126.686C215.633 126.806 215.549 126.925 215.465 127.051C215.11 127.585 214.788 128.142 214.501 128.718C214.429 128.855 214.362 128.998 214.294 129.135C213.837 130.099 213.462 131.102 213.174 132.132C213.069 132.512 212.974 132.893 212.888 133.273C212.888 133.273 201.022 138.606 191.18 142.465C188.563 143.493 186.098 144.424 184.034 145.126C183.435 145.331 182.874 145.519 182.353 145.696C181.222 146.113 180.046 146.389 178.85 146.518C178.286 146.528 177.724 146.581 177.168 146.678C172.645 147.426 164.894 150.674 164.047 153.935C163.979 154.195 163.96 154.466 163.991 154.733C163.991 154.733 145.557 212.868 145.355 213.936C144.539 218.286 142.719 226.569 141.824 229.921C141.157 232.421 140.187 235.846 139.52 238.198C139.51 238.267 139.491 238.335 139.464 238.399L164.591 238.147V238.627H164.669L164.635 238.618Z" fill="#6C63FF"/>
<path d="M273.323 130.267C257.071 133.316 226.467 132.659 213.24 132.196C218.088 114.499 241.729 120.516 241.729 120.516C270.992 114.567 273.234 126.91 273.323 130.267Z" fill="#6C63FF"/>
<path d="M359.603 208.292C359.603 208.292 378.749 205.295 379.125 213.858C379.501 222.422 369.362 228.405 369.362 228.405L359.603 208.292Z" fill="#ED9DA0"/>
<path d="M373.8 225.418C373.8 225.418 373.301 226.628 372.382 228.381C370.991 231.078 369.298 233.601 367.337 235.9L367.186 236.066H366.278L333.916 236.368H333.142L333.047 236.253L326.772 228.667L324.407 225.806L324.311 225.686L324.11 225.446L323.998 225.31L323.852 225.133L319.251 219.572L320.932 212.436L323.796 200.412L323.869 200.121L324.429 197.837L324.827 196.124L326.161 190.541L330.735 171.33L338.861 175.612L347.43 191.031L352.031 199.309H354.552C355.028 199.309 356.121 200.245 357.22 201.324C357.612 201.708 358.004 202.112 358.341 202.466C359.338 203.516 360.129 204.418 360.129 204.418C360.129 204.418 364.214 204.51 365.313 207.787C365.37 207.945 365.416 208.107 365.453 208.272C365.818 209.56 366.292 210.813 366.871 212.017C367.594 213.621 368.503 215.442 369.421 217.263C371.13 220.603 372.868 223.783 373.507 224.933L373.585 225.076L373.8 225.418Z" fill="#6C63FF"/>
<path d="M164.635 238.618V238.139L263.066 237.049L323.038 236.478H323.206V236.381L323.766 228.711L324.007 225.285L324.926 212.374L325.649 202.155V201.904C325.682 201.433 325.661 200.96 325.587 200.494C325.59 200.475 325.59 200.456 325.587 200.437C325.433 199.474 325.048 198.564 324.466 197.788C323.849 196.982 323.04 196.35 322.116 195.95C321.193 195.55 320.184 195.397 319.186 195.505C312.398 196.213 305.544 196.778 298.684 197.218C297.748 197.286 296.812 197.345 295.881 197.395C251.637 200.072 207.791 197.903 184.066 196.253L182.384 196.125C178.276 195.828 174.84 195.554 172.195 195.321C170.74 195.196 169.29 195.624 168.127 196.523C166.964 197.423 166.169 198.729 165.895 200.19C165.839 200.499 165.805 200.813 165.794 201.127L165.413 213.778L164.892 229.803L164.645 238.001V238.64L164.635 238.618Z" fill="#090814"/>
<path d="M237.949 114.053C255.879 114.053 270.414 99.2477 270.414 80.9844C270.414 62.7211 255.879 47.9158 237.949 47.9158C220.019 47.9158 205.484 62.7211 205.484 80.9844C205.484 99.2477 220.019 114.053 237.949 114.053Z" fill="#ED9DA0"/>
<path d="M281.828 57.8862C281.577 57.6123 281.274 57.393 280.937 57.2412C280.6 57.0894 280.237 57.0084 279.869 57.0029L280.357 55.6222C280.516 55.1874 280.558 54.7174 280.48 54.2604C280.402 53.8033 280.206 53.3756 279.912 53.0209C279.619 52.6662 279.238 52.3972 278.809 52.2414C278.38 52.0857 277.918 52.0487 277.471 52.1343L275.693 52.4833L275.86 51.2733C275.925 50.8227 275.874 50.3626 275.711 49.9385C275.548 49.5143 275.279 49.1407 274.931 48.8546C274.583 48.5684 274.168 48.3796 273.727 48.3066C273.285 48.2337 272.833 48.2792 272.414 48.4386C272.033 48.5914 271.623 48.6554 271.215 48.6259C270.806 48.5963 270.41 48.474 270.053 48.268C269.696 48.0682 269.386 47.7913 269.144 47.4567C268.902 47.1221 268.736 46.7378 268.655 46.3307L268.035 43.2882L267.973 43.1252C264.956 38.0042 259.157 34.2792 252.06 32.9133C245.743 31.6886 239.266 32.3125 233.022 32.8986C230.544 33.1363 227.747 33.4035 225.415 34.8576C223.433 36.1046 221.757 38.598 222.1 41.1138C215.943 39.1918 209.342 43.0313 206.071 47.8672C202.195 53.6261 201.561 60.8423 201.459 66.4798C201.182 79.8237 203.885 90.7407 209.473 98.9335C209.881 99.5273 209.984 100.767 210.791 101.182L210.624 100.907C211.527 101.367 212.443 102.11 212.103 102.903C211.119 105.189 217.655 110.243 222.259 111.916C230.66 114.966 241.829 114.706 249.681 113.608L249.958 111.715C252.792 111.322 254.79 110.572 255.349 109.399C256.34 108.538 257.185 107.767 257.922 107.054L257.93 107.046C257.944 107.032 257.973 107.009 257.988 106.995C261.536 103.529 262.36 101.555 262.731 98.5494C263.088 95.6028 262.454 92.6121 261.806 89.9206C275.459 92.0727 256.429 75.1073 269.147 71.8271C269.293 71.7813 269.442 71.7441 269.592 71.7158C269.963 71.627 270.335 71.5375 270.692 71.434C272.412 70.9581 274.059 70.2414 275.586 69.3042C279.142 67.1004 280.315 64.1762 282.151 60.8813C282.416 60.4122 282.527 59.8692 282.468 59.3313C282.409 58.7934 282.183 58.2887 281.823 57.8906L281.828 57.8862Z" fill="#090814"/>
<path d="M96.608 50.5371H151.231C152.374 50.5371 153.471 50.9998 154.28 51.8236C155.088 52.6473 155.543 53.7645 155.543 54.9294C155.543 56.0943 155.088 57.2116 154.28 58.0353C153.471 58.859 152.374 59.3218 151.231 59.3218H96.608C95.4644 59.3218 94.3675 58.859 93.5588 58.0353C92.7502 57.2116 92.2958 56.0943 92.2958 54.9294C92.2958 53.7645 92.7502 52.6473 93.5588 51.8236C94.3675 50.9998 95.4644 50.5371 96.608 50.5371Z" fill="#6C63FF"/>
<path d="M82.2339 71.0352H165.605C166.749 71.0352 167.846 71.4979 168.655 72.3216C169.463 73.1454 169.918 74.2626 169.918 75.4275C169.918 76.5924 169.463 77.7097 168.655 78.5334C167.846 79.3571 166.749 79.8199 165.605 79.8199H82.2339C81.0902 79.8199 79.9934 79.3571 79.1847 78.5334C78.376 77.7097 77.9217 76.5924 77.9217 75.4275C77.9217 74.2626 78.376 73.1454 79.1847 72.3216C79.9934 71.4979 81.0902 71.0352 82.2339 71.0352Z" fill="#E6E6E6"/>
<path d="M82.2339 91.5339H165.605C166.749 91.5339 167.846 91.9967 168.655 92.8204C169.463 93.6441 169.918 94.7613 169.918 95.9262C169.918 97.0912 169.463 98.2084 168.655 99.0321C167.846 99.8558 166.749 100.319 165.605 100.319H82.2339C81.0902 100.319 79.9934 99.8558 79.1847 99.0321C78.376 98.2084 77.9217 97.0912 77.9217 95.9262C77.9217 94.7613 78.376 93.6441 79.1847 92.8204C79.9934 91.9967 81.0902 91.5339 82.2339 91.5339Z" fill="#E6E6E6"/>
</svg>
