<svg width="255" height="178" viewBox="0 0 255 178" fill="none" xmlns="http://www.w3.org/2000/svg">
<g clip-path="url(#clip0_12_394)">
<path d="M24.4984 177.547C24.4879 177.657 24.5257 177.766 24.6038 177.851C24.6818 177.936 24.7938 177.989 24.9154 178H232.734C232.852 177.981 232.959 177.925 233.036 177.842C233.113 177.76 233.155 177.655 233.155 177.547C233.155 177.439 233.113 177.334 233.036 177.252C232.959 177.169 232.852 177.113 232.734 177.094H24.9154C24.7938 177.105 24.6818 177.158 24.6038 177.243C24.5257 177.328 24.4879 177.437 24.4984 177.547Z" fill="#D6D6E3"/>
<path d="M136.168 132.849C135.866 134.729 134.823 136.447 133.232 137.69C131.64 138.934 129.605 139.618 127.5 139.618C125.395 139.618 123.36 138.934 121.768 137.69C120.177 136.447 119.134 134.729 118.832 132.849H96.6561V177.094H158.344V132.849H136.168Z" fill="#D6D6E3"/>
<path d="M251.561 133.982H3.43898C2.52719 133.981 1.65301 133.654 1.00828 133.072C0.363546 132.49 0.000928203 131.701 0 130.879L0 3.10316C0.000928203 2.28041 0.363546 1.49159 1.00828 0.909819C1.65301 0.328046 2.52719 0.000837562 3.43898 0H251.561C252.473 0.00106591 253.347 0.328375 253.991 0.910124C254.636 1.49187 254.998 2.28056 254.999 3.10316V130.879C254.998 131.701 254.636 132.49 253.991 133.072C253.346 133.654 252.472 133.981 251.56 133.982H251.561Z" fill="#090814"/>
<path d="M249.209 5.17807H6.40308V128.804H249.209V5.17807Z" fill="white"/>
<path d="M48.7685 12.0801H16.8936C16.1895 12.0801 15.6187 12.5952 15.6187 13.2306V114.474C15.6187 115.109 16.1895 115.624 16.8936 115.624H48.7685C49.4727 115.624 50.0435 115.109 50.0435 114.474V13.2306C50.0435 12.5952 49.4727 12.0801 48.7685 12.0801Z" fill="#6C63FF"/>
<path d="M29.6437 16.3945H36.0187C36.5259 16.3945 37.0123 16.5763 37.371 16.8999C37.7297 17.2236 37.9312 17.6625 37.9312 18.1202V19.2707C37.9312 19.7284 37.7297 20.1673 37.371 20.491C37.0123 20.8146 36.5259 20.9964 36.0187 20.9964H29.6437C29.1365 20.9964 28.65 20.8146 28.2914 20.491C27.9327 20.1673 27.7312 19.7284 27.7312 19.2707V18.1202C27.7312 17.6625 27.9327 17.2236 28.2914 16.8999C28.65 16.5763 29.1365 16.3945 29.6437 16.3945Z" fill="white"/>
<path d="M21.3562 106.42H44.3061C44.6442 106.42 44.9685 106.541 45.2076 106.757C45.4468 106.973 45.5811 107.266 45.5811 107.571V109.872C45.5811 110.177 45.4468 110.47 45.2076 110.685C44.9685 110.901 44.6442 111.022 44.3061 111.022H21.3562C21.018 111.022 20.6937 110.901 20.4546 110.685C20.2155 110.47 20.0812 110.177 20.0812 109.872V107.571C20.0812 107.266 20.2155 106.973 20.4546 106.757C20.6937 106.541 21.018 106.42 21.3562 106.42Z" fill="white"/>
<path d="M61.8373 12.0801H84.7872C85.1253 12.0801 85.4496 12.2014 85.6887 12.4171C85.9278 12.6329 86.0622 12.9255 86.0622 13.2306V15.5316C86.0622 15.8367 85.9278 16.1294 85.6887 16.3451C85.4496 16.5609 85.1253 16.6821 84.7872 16.6821H61.8373C61.4991 16.6821 61.1748 16.5609 60.9357 16.3451C60.6966 16.1294 60.5623 15.8367 60.5623 15.5316V13.2306C60.5623 12.9255 60.6966 12.6329 60.9357 12.4171C61.1748 12.2014 61.4991 12.0801 61.8373 12.0801Z" fill="#F2F2F2"/>
<path d="M109.012 23.0098H63.1122C61.7039 23.0098 60.5623 24.04 60.5623 25.3108V46.0196C60.5623 47.2904 61.7039 48.3206 63.1122 48.3206H109.012C110.42 48.3206 111.562 47.2904 111.562 46.0196V25.3108C111.562 24.04 110.42 23.0098 109.012 23.0098Z" fill="#6C63FF"/>
<path d="M43.0311 25.5984H22.6312C21.2228 25.5984 20.0812 26.6286 20.0812 27.8994C20.0812 29.1702 21.2228 30.2004 22.6312 30.2004H43.0311C44.4394 30.2004 45.5811 29.1702 45.5811 27.8994C45.5811 26.6286 44.4394 25.5984 43.0311 25.5984Z" fill="white"/>
<path d="M223.762 96.6411H65.6622C62.8456 96.6411 60.5623 98.7015 60.5623 101.243V111.022C60.5623 113.564 62.8456 115.624 65.6622 115.624H223.762C226.578 115.624 228.862 113.564 228.862 111.022V101.243C228.862 98.7015 226.578 96.6411 223.762 96.6411Z" fill="#F2F2F2"/>
<path d="M204.637 12.0801H227.587C227.925 12.0801 228.249 12.2014 228.488 12.4171C228.727 12.6329 228.862 12.9255 228.862 13.2306V15.5316C228.862 15.8367 228.727 16.1294 228.488 16.3451C228.249 16.5609 227.925 16.6821 227.587 16.6821H204.637C204.299 16.6821 203.974 16.5609 203.735 16.3451C203.496 16.1294 203.362 15.8367 203.362 15.5316V13.2306C203.362 12.9255 203.496 12.6329 203.735 12.4171C203.974 12.2014 204.299 12.0801 204.637 12.0801Z" fill="#6C63FF"/>
<path opacity="0.149" d="M43.0311 32.5013H22.6312C21.2228 32.5013 20.0812 33.5315 20.0812 34.8023C20.0812 36.0731 21.2228 37.1033 22.6312 37.1033H43.0311C44.4394 37.1033 45.5811 36.0731 45.5811 34.8023C45.5811 33.5315 44.4394 32.5013 43.0311 32.5013Z" fill="white"/>
<path opacity="0.149" d="M43.0311 39.4043H22.6312C21.2228 39.4043 20.0812 40.4344 20.0812 41.7052C20.0812 42.976 21.2228 44.0062 22.6312 44.0062H43.0311C44.4394 44.0062 45.5811 42.976 45.5811 41.7052C45.5811 40.4344 44.4394 39.4043 43.0311 39.4043Z" fill="white"/>
<path opacity="0.149" d="M43.0311 46.3072H22.6312C21.2228 46.3072 20.0812 47.3374 20.0812 48.6082C20.0812 49.879 21.2228 50.9092 22.6312 50.9092H43.0311C44.4394 50.9092 45.5811 49.879 45.5811 48.6082C45.5811 47.3374 44.4394 46.3072 43.0311 46.3072Z" fill="white"/>
<path opacity="0.149" d="M43.0311 53.2101H22.6312C21.2228 53.2101 20.0812 54.2403 20.0812 55.5111C20.0812 56.7819 21.2228 57.8121 22.6312 57.8121H43.0311C44.4394 57.8121 45.5811 56.7819 45.5811 55.5111C45.5811 54.2403 44.4394 53.2101 43.0311 53.2101Z" fill="white"/>
<path d="M226.312 23.0098H180.412C179.003 23.0098 177.862 24.04 177.862 25.3108V46.0196C177.862 47.2904 179.003 48.3206 180.412 48.3206H226.312C227.72 48.3206 228.862 47.2904 228.862 46.0196V25.3108C228.862 24.04 227.72 23.0098 226.312 23.0098Z" fill="#6C63FF"/>
<path d="M167.662 23.0098H121.762C120.354 23.0098 119.212 24.04 119.212 25.3108V46.0196C119.212 47.2904 120.354 48.3206 121.762 48.3206H167.662C169.07 48.3206 170.212 47.2904 170.212 46.0196V25.3108C170.212 24.04 169.07 23.0098 167.662 23.0098Z" fill="#6C63FF"/>
<path d="M223.762 74.2066H65.6622C62.8456 74.2066 60.5623 76.2669 60.5623 78.8085V88.5877C60.5623 91.1293 62.8456 93.1897 65.6622 93.1897H223.762C226.578 93.1897 228.862 91.1293 228.862 88.5877V78.8085C228.862 76.2669 226.578 74.2066 223.762 74.2066Z" fill="#F2F2F2"/>
<path d="M223.762 51.772H65.6622C62.8456 51.772 60.5623 53.8324 60.5623 56.374V66.1531C60.5623 68.6947 62.8456 70.7551 65.6622 70.7551H223.762C226.578 70.7551 228.862 68.6947 228.862 66.1531V56.374C228.862 53.8324 226.578 51.772 223.762 51.772Z" fill="#F2F2F2"/>
</g>
<defs>
<clipPath id="clip0_12_394">
<rect width="255" height="178" fill="white"/>
</clipPath>
</defs>
</svg>
